PathFileType	4	(x/y/z)	S06_P20_T09
DataRate	CameraRate	NumFrames	NumMarkers	Units	OrigDataRate	OrigDataStartFrame	OrigNumFrames
240	240	4	51	mm	240	291	332
Frame#	Time	Sternum			R.Acromium			L.Acromium			Top.Head			R.ASIS			L.ASIS			R.PSIS			L.PSIS			R.Great.Tro			L.Great.Tro			R.Iliac.Crest			L.Iliac.Crest			V.Sacral			R.Thigh.Upper.Post			R.Thigh.Lower.Ant			R.Thigh.Lower.Post			R.Thigh.Upper.Ant			R.Knee.Lat			R.Knee.Med			R.Shank.Upper.Post			R.Shank.Lower.Ant			R.Shank.Lower.Post			R.Shank.Upper.Ant			R.Ankle.Lat			R.Ankle.Med			R.Heel.Upper			R.Heel.Med			R.Heel.Lat			R.Toe.Lat			R.Toe.Med			R.Toe.Tip			L.Thigh.Upper.Post			L.Thigh.Lower.Ant			L.Thigh.Lower.Post			L.Thigh.Upper.Ant			L.Knee.Lat			L.Knee.Med			L.Shank.Upper.Post			L.Shank.Lower.Ant			L.Shank.Lower.Post			L.Shank.Upper.Ant			L.Ankle.Lat			L.Ankle.Med			L.Heel.Upper			L.Heel.Med			L.Heel.Lat			L.Toe.Lat			L.Toe.Med			L.Toe.Tip			Cervical.Spine			Back			
		X1	Y1	Z1	X2	Y2	Z2	X3	Y3	Z3	X4	Y4	Z4	X5	Y5	Z5	X6	Y6	Z6	X7	Y7	Z7	X8	Y8	Z8	X9	Y9	Z9	X10	Y10	Z10	X11	Y11	Z11	X12	Y12	Z12	X13	Y13	Z13	X14	Y14	Z14	X15	Y15	Z15	X16	Y16	Z16	X17	Y17	Z17	X18	Y18	Z18	X19	Y19	Z19	X20	Y20	Z20	X21	Y21	Z21	X22	Y22	Z22	X23	Y23	Z23	X24	Y24	Z24	X25	Y25	Z25	X26	Y26	Z26	X27	Y27	Z27	X28	Y28	Z28	X29	Y29	Z29	X30	Y30	Z30	X31	Y31	Z31	X32	Y32	Z32	X33	Y33	Z33	X34	Y34	Z34	X35	Y35	Z35	X36	Y36	Z36	X37	Y37	Z37	X38	Y38	Z38	X39	Y39	Z39	X40	Y40	Z40	X41	Y41	Z41	X42	Y42	Z42	X43	Y43	Z43	X44	Y44	Z44	X45	Y45	Z45	X46	Y46	Z46	X47	Y47	Z47	X48	Y48	Z48	X49	Y49	Z49	X50	Y50	Z50	X51	Y51	Z51	

291	1.2083	315.01	1294.7	304.15	191.24	1503.9	470.78	193.58	1505.4	118.42	252.08	1819.4	294.97	249.92	1061.7	428.27	267.4	1054.2	176.76	60.008	1082.7	325.34	63.001	1087.9	245.09	198.14	994.15	477.3	174.37	989.82	117.56	168.3	1138	453.46	205.28	1130.1	136.29	46.41	1050.2	286.98	300.66	764.47	469.31	383.47	711.51	435.46	323.89	679.36	451.72	362.16	799.53	447.82	379.89	582.47	441.06	385.93	586.35	313.84	304.78	367.69	447.17	354.63	295.01	430.56	289.67	292.57	435.64	369.62	369.45	442.52	301.73	153.79	417	324.08	151.42	330.15	236.13	115.21	364.25	245.68	82.461	336.48	239.71	86.174	401.31	409.77	70.618	457.34	445.95	70.632	341.85	507.51	86.046	391.01	233.88	723.26	144.88	279.38	646.25	210	214.39	636.3	165.37	293.7	737.11	185.05	196.27	541.91	185.56	218.34	551.71	304.36	122.83	320.89	196.6	178.34	251.53	205.27	107.44	250.5	215.83	188.97	320.85	192.26	132.77	106.46	221.39	136.66	112.38	312.1	53.375	73.116	259.79	55.572	45.805	292.26	60.728	47.746	230.46	240.53	43.616	201.59	253.93	46.74	321.65	328.32	60.458	272.47	136.66	1556.4	294.42	75.281	1285.8	289.46
292	1.2125	320.6	1294.7	304.11	196.63	1503.8	470.7	199.29	1505.4	118.35	257.6	1819.3	295.1	255.74	1061.7	428.25	272.79	1053.9	176.84	66.003	1082.7	325.55	68.598	1087.9	245.25	204.02	994.21	477.39	179.53	989.69	117.62	174.08	1138.1	453.49	210.73	1129.8	136.31	52.064	1050.2	287.21	305.06	763.86	468.95	387.71	710.51	435.16	327.93	678.67	451.23	366.82	798.6	447.64	384.34	581.85	440.63	390.01	585.71	313.49	315.2	364.99	446.47	367.07	293.85	429.92	302.25	289.47	434.8	379.96	368.62	441.98	318.49	150.81	416.04	341.08	149.3	329.29	254.11	110.55	363.09	264.69	78.19	335.29	258.45	81.536	400.03	428.71	70.585	456.47	465.08	71.961	341.13	526.04	88.952	390.5	237.31	722.99	145.04	282.35	645.66	210.12	217.27	636.16	165.52	297.28	736.4	185.16	198.42	541.78	185.73	220.53	551.48	304.57	123.95	320.99	196.82	179.18	251.39	205.43	108.29	250.66	216.05	190.1	320.68	192.4	133.03	106.54	221.6	136.98	112.36	312.27	53.479	73.227	259.92	55.636	45.867	292.34	60.798	47.91	230.55	240.58	43.558	201.58	254.07	46.431	321.74	328.45	60.036	272.49	142.17	1556.3	294.31	80.88	1285.7	289.25
293	1.2167	326.21	1294.6	304.06	202.03	1503.6	470.62	204.98	1505.3	118.28	263.1	1819.2	295.22	261.59	1061.7	428.22	278.19	1053.6	176.9	72.022	1082.6	325.79	74.215	1087.8	245.43	209.91	994.19	477.47	184.71	989.52	117.69	179.9	1138.2	453.53	216.16	1129.6	136.32	57.747	1050.2	287.45	309.35	763.14	468.65	391.82	709.36	434.9	331.84	677.85	450.79	371.38	797.53	447.49	388.64	581.11	440.21	393.94	584.93	313.14	325.5	362.34	445.77	379.36	292.77	429.25	314.73	286.47	433.96	390.14	367.84	441.43	335.12	148.05	415.05	357.9	147.43	328.41	271.98	106.15	361.9	283.56	74.221	334.06	277.11	77.172	398.72	447.47	70.816	455.51	483.93	73.622	340.3	544.27	92.153	389.88	240.76	722.7	145.21	285.35	645.06	210.22	220.18	636	165.67	300.88	735.67	185.24	200.61	541.63	185.9	222.79	551.24	304.77	125.08	321.07	197.04	180.04	251.26	205.58	109.15	250.83	216.27	191.24	320.5	192.52	133.3	106.62	221.81	137.3	112.34	312.43	53.584	73.339	260.05	55.7	45.927	292.42	60.868	48.075	230.63	240.64	43.506	201.58	254.22	46.12	321.83	328.6	59.605	272.51	147.69	1556.1	294.2	86.498	1285.5	289.07
294	1.2208	331.85	1294.5	304.01	207.44	1503.4	470.55	210.66	1505.2	118.2	268.59	1819	295.35	267.48	1061.6	428.19	283.63	1053.2	176.94	78.052	1082.6	326.05	79.852	1087.7	245.63	215.83	994.1	477.55	189.89	989.3	117.78	185.78	1138.1	453.58	221.57	1129.2	136.35	63.459	1050.1	287.73	313.56	762.3	468.4	395.82	708.09	434.67	335.64	676.92	450.4	375.84	796.33	447.37	392.8	580.25	439.81	397.72	584	312.77	335.69	359.74	445.08	391.47	291.8	428.55	327.07	283.59	433.12	400.16	367.09	440.84	351.58	145.52	414.03	374.5	145.84	327.49	289.7	102.02	360.71	302.28	70.56	332.8	295.64	73.086	397.39	466.01	71.311	454.45	502.46	75.611	339.36	562.17	95.645	389.14	244.25	722.39	145.37	288.38	644.44	210.31	223.13	635.82	165.81	304.51	734.91	185.3	202.84	541.48	186.07	225.1	550.99	304.96	126.24	321.16	197.26	180.92	251.12	205.72	110.04	251.01	216.49	192.41	320.32	192.65	133.56	106.71	222.01	137.61	112.31	312.59	53.69	73.452	260.19	55.764	45.985	292.51	60.939	48.242	230.73	240.69	43.46	201.58	254.37	45.808	321.92	328.75	59.166	272.53	153.2	1555.9	294.09	92.136	1285.3	288.91
